<svg width="116" height="117" viewBox="0 0 116 117" fill="none" xmlns="http://www.w3.org/2000/svg">
<path d="M100.051 58.5262C100.051 57.2404 99.6314 56.633 98.9975 56.1317C98.1578 55.4677 96.9284 54.9906 95.0902 54.3182C93.2453 53.6434 90.8351 52.7849 88.8266 51.1932C86.6886 49.4989 85.091 47.0621 84.5873 43.4715L84.5863 43.4706C83.3773 34.8075 90.15 29.3047 96.9564 27.6629C97.6737 27.4893 98.3691 27.3437 99.016 27.2079C101.763 26.6311 104.032 26.1449 106.99 24.0047C108.138 23.0663 109.087 21.9015 109.772 20.5751C110.468 19.2273 110.879 17.7476 110.977 16.2362L110.999 15.6668C111.017 14.3388 110.796 13.0199 110.346 11.7694C109.837 10.3557 109.045 9.06646 108.025 7.98618C106.956 6.95971 105.682 6.16489 104.295 5.65513V5.65415C102.886 5.13848 101.39 4.92503 99.9017 5.02329C98.4128 5.12161 96.955 5.53357 95.6322 6.2313C94.3213 6.92279 93.1602 7.88167 92.2299 9.04185C90.12 12.0178 89.6411 14.3118 89.0736 17.0848C88.938 17.7475 88.7928 18.4594 88.6185 19.1942L88.6156 19.2069L88.6127 19.2186C87.7522 22.6944 85.9967 26.0536 83.3607 28.4422C80.6714 30.8792 77.0984 32.2592 72.9223 31.661L72.9193 31.66C69.3401 31.1436 66.9187 29.5188 65.2406 27.3631C63.6645 25.3384 62.8134 22.9123 62.143 21.0497C61.4758 19.1961 61.0011 17.9491 60.3402 17.0985C59.8409 16.4559 59.2496 16.0477 58.0062 16.0477C56.7638 16.0477 56.173 16.4564 55.6732 17.1004C55.0121 17.9525 54.5371 19.2008 53.8705 21.0555C53.2008 22.9189 52.3505 25.3467 50.7758 27.371C49.0988 29.5265 46.6786 31.1498 43.101 31.661H43.099C38.9044 32.2574 35.3185 30.8835 32.6244 28.4422C29.984 26.0496 28.2402 22.6832 27.4066 19.1991L27.4047 19.1952C27.2329 18.4709 27.0891 17.7683 26.9545 17.1141C26.3819 14.3304 25.8985 12.0294 23.7738 9.0399C22.8445 7.88168 21.6861 6.92315 20.3773 6.23228C19.0453 5.53219 17.5917 5.12149 16.1049 5.02329C14.6139 4.92488 13.1128 5.14016 11.7113 5.65513C10.3267 6.16399 9.05619 6.95886 7.97695 7.99107C6.95527 9.07936 6.16679 10.3624 5.66054 11.7694C5.14637 13.1984 4.93155 14.7227 5.02968 16.2362L5.08046 16.8026C5.23391 18.1167 5.62372 19.3925 6.23281 20.578L6.50624 21.0741C7.16431 22.1982 8.01792 23.1957 9.02089 24.0145C11.9693 26.1533 14.2366 26.6374 16.9916 27.2147C17.6381 27.3502 18.3331 27.4957 19.0502 27.6688L19.0609 27.6717L19.0707 27.6747C25.8303 29.367 32.6196 34.8595 31.4076 43.4784V43.4823C30.8968 47.0713 29.296 49.5065 27.1586 51.2001C25.1499 52.7916 22.7424 53.6508 20.8988 54.326C19.0619 54.9988 17.8337 55.4751 16.9955 56.1385C16.363 56.6393 15.9447 57.2467 15.9447 58.5321C15.9448 59.8149 16.3622 60.4215 16.9955 60.9227C17.8346 61.5867 19.0643 62.064 20.9018 62.7372C22.7474 63.4132 25.158 64.273 27.1674 65.867C29.1725 67.4578 30.7027 69.7013 31.3012 72.9374L31.4086 73.5975V73.5995C32.6175 82.2642 25.8363 87.7512 19.056 89.4042L19.0502 89.4061C18.3231 89.5817 17.6188 89.7276 16.9643 89.8641C14.2175 90.4368 11.9531 90.9177 9.00429 93.0516C7.85914 93.9875 6.91563 95.1524 6.2289 96.4823L6.22695 96.4852C5.53284 97.8247 5.12192 99.3034 5.02382 100.815C4.92574 102.328 5.14035 103.847 5.65468 105.276C6.09975 106.513 6.75752 107.651 7.59902 108.644L7.94179 108.976C9.02067 110.023 10.3027 110.829 11.7084 111.344C13.1185 111.86 14.6151 112.075 16.1049 111.976C17.5938 111.878 19.0517 111.466 20.3744 110.768L20.3773 110.766C21.6884 110.077 22.8413 109.121 23.7719 107.956C25.8967 104.967 26.3812 102.667 26.9535 99.8905C27.0884 99.2359 27.2333 98.5338 27.4057 97.8094L27.4076 97.7987L27.4105 97.7879C28.2708 94.3066 30.0263 90.9441 32.6625 88.5536C35.2682 86.1908 38.7031 84.8222 42.7123 85.2831L43.1019 85.3329L43.1049 85.3338C46.6797 85.8502 49.0976 87.4742 50.7728 89.6288C52.3461 91.6524 53.1948 94.0777 53.8637 95.9393C54.5301 97.7942 55.0052 99.042 55.6664 99.8934C56.1658 100.536 56.7583 100.946 58.0062 100.946C59.2527 100.946 59.8452 100.536 60.3451 99.8924C61.0065 99.0405 61.4813 97.7922 62.1478 95.9374C62.8174 94.0742 63.6671 91.6471 65.2426 89.6229C66.9207 87.467 69.3432 85.8438 72.9232 85.3329H72.9242C77.1189 84.7364 80.7057 86.1104 83.3998 88.5516C85.875 90.7946 87.5625 93.8932 88.4506 97.1424L88.6176 97.7948L88.6185 97.7997C88.7936 98.5377 88.9398 99.2527 89.0756 99.9178C89.6412 102.688 90.1181 104.978 92.2289 107.95C93.1587 109.116 94.3196 110.076 95.6322 110.768C96.955 111.466 98.4128 111.878 99.9017 111.976C101.392 112.075 102.888 111.86 104.298 111.344C105.683 110.834 106.954 110.04 108.022 109.015C109.047 107.926 109.839 106.641 110.346 105.23C110.796 103.98 111.017 102.657 110.999 101.332L110.977 100.764C110.879 99.2475 110.468 97.7733 109.772 96.4247V96.4237C109.085 95.0995 108.135 93.93 106.99 92.994C104.054 90.8701 101.793 90.3832 99.0678 89.8075C98.4054 89.6676 97.6923 89.5165 96.9564 89.3358V89.3368C90.1697 87.6982 83.3747 82.2135 84.5873 73.5907V73.5897C85.0944 69.997 86.6935 67.5588 88.8314 65.8631C90.8404 64.2699 93.2496 63.4099 95.0941 62.7342C96.9315 62.0612 98.1608 61.5847 98.9994 60.9208C99.6322 60.4197 100.051 59.8122 100.051 58.5262ZM105.051 58.5262C105.051 61.3793 103.902 63.4158 102.103 64.8407C100.509 66.1028 98.4385 66.8344 96.8139 67.4295C94.83 68.1562 93.2099 68.7722 91.9389 69.7801C90.7968 70.6859 89.8649 71.9758 89.5385 74.2879C88.8598 79.1181 92.3776 82.9002 97.6176 84.3436L98.1293 84.4764L98.1391 84.4784C98.7863 84.6375 99.4243 84.7719 100.101 84.9149C102.892 85.5044 105.934 86.1401 109.628 88.7333L109.988 88.9901L110.038 89.0272L110.086 89.0663C111.795 90.4472 113.202 92.1752 114.213 94.1268L114.4 94.4999C115.299 96.357 115.833 98.3713 115.967 100.44L115.989 100.852C116.069 102.914 115.751 104.979 115.051 106.924C114.303 109.002 113.133 110.895 111.619 112.492L111.582 112.529L111.545 112.566C109.964 114.1 108.077 115.281 106.02 116.037L106.018 116.038C103.956 116.793 101.761 117.11 99.5726 116.966C97.3831 116.821 95.2424 116.216 93.2992 115.191C91.3597 114.168 89.6445 112.747 88.2758 111.015L88.2387 110.968L88.2035 110.92C85.4137 107.02 84.7728 103.841 84.1762 100.919C84.0384 100.244 83.9079 99.606 83.7543 98.9579C83.1038 96.2389 81.7881 93.8387 80.0424 92.2567C78.3502 90.7233 76.2235 89.9131 73.6283 90.2821L73.6293 90.2831C71.3591 90.6072 70.0885 91.5385 69.1889 92.6942C68.1869 93.9815 67.5734 95.624 66.8529 97.6288C66.263 99.2702 65.5407 101.353 64.2943 102.959C62.8861 104.772 60.8593 105.946 58.0062 105.946C55.1529 105.946 53.1258 104.774 51.7172 102.96C50.4704 101.354 49.7482 99.2709 49.1586 97.6297C48.4391 95.627 47.8266 93.9856 46.8256 92.6981C45.9269 91.5422 44.658 90.6099 42.393 90.2821V90.2831C39.831 89.916 37.7175 90.7192 36.0209 92.2577C34.271 93.8446 32.9405 96.2539 32.265 98.9872C32.1151 99.6193 31.9866 100.242 31.851 100.9C31.2477 103.826 30.5998 107.011 27.8031 110.92L27.768 110.968L27.7309 111.015C26.3646 112.744 24.6555 114.165 22.7064 115.19C20.7633 116.215 18.6234 116.821 16.434 116.966C14.2451 117.11 12.0509 116.793 9.98866 116.038C9.20661 115.751 8.45156 115.403 7.7289 114.999L7.51894 115.85L4.37636 112.538C2.85842 110.938 1.69596 109.044 0.949602 106.97C0.20345 104.896 -0.108983 102.691 0.0335868 100.492C0.17622 98.2926 0.774243 96.1409 1.78749 94.1854C2.79886 92.2277 4.19926 90.505 5.90859 89.1239L5.95742 89.0848L6.00722 89.0477C9.8826 86.2252 13.0404 85.5749 15.9437 84.9696C16.6072 84.8313 17.2344 84.7004 17.8715 84.5467L18.3822 84.4139C23.6076 82.9627 27.1379 79.1814 26.4564 74.2918L26.3891 73.87C26.0156 71.8198 25.1304 70.6333 24.06 69.784C22.7888 68.7756 21.1675 68.1588 19.182 67.4315C17.5572 66.8363 15.487 66.1049 13.893 64.8436C12.0937 63.4197 10.9448 61.3842 10.9447 58.5321C10.9447 55.6796 12.0926 53.6431 13.892 52.2186C15.4856 50.957 17.5549 50.2256 19.1791 49.6307C21.1619 48.9045 22.7816 48.2886 24.0531 47.2811C25.1953 46.3761 26.1273 45.0884 26.4564 42.7821C27.1579 37.7934 23.3844 33.9097 17.8617 32.5252C17.2352 32.3743 16.6179 32.2458 15.9662 32.1092C13.0548 31.4992 9.89214 30.8442 6.01601 28.0135L5.96718 27.9774L5.91933 27.9393C4.21015 26.5583 2.80467 24.8295 1.79335 22.8778L1.78945 22.8719C0.843242 21.033 0.258681 19.034 0.0716728 16.9725L0.0394462 16.5594C-0.103062 14.3614 0.209061 12.1504 0.955462 10.076C1.70336 7.9976 2.87329 6.10456 4.38808 4.50767L4.42519 4.46861L4.46523 4.43052C6.04802 2.90209 7.92677 1.71978 9.98671 0.962747C12.046 0.206016 14.2465 -0.11035 16.434 0.0340357C18.6254 0.178706 20.7583 0.785015 22.7035 1.80747L22.7074 1.80845C24.5253 2.7674 26.1451 4.07578 27.4672 5.65513L27.7279 5.97544L27.766 6.02427L27.8031 6.07505C30.6017 9.98694 31.2483 13.1729 31.8519 16.1073C31.9883 16.7701 32.1177 17.398 32.2689 18.036C32.9195 20.7552 34.236 23.1552 35.9818 24.7372C37.6737 26.2703 39.7993 27.0793 42.3939 26.7108L42.807 26.6434C44.8177 26.2701 45.9863 25.3845 46.8295 24.3006C47.8312 23.0129 48.4449 21.3699 49.1654 19.3651C49.7553 17.7236 50.4776 15.6401 51.723 14.035C53.1299 12.222 55.1549 11.0477 58.0062 11.0477C60.8561 11.0477 62.881 12.2196 64.2885 14.0311C65.5344 15.6347 66.2577 17.7162 66.848 19.3563C67.5691 21.3596 68.1825 23.0028 69.1859 24.2918C70.0872 25.4495 71.3602 26.3826 73.6303 26.7108C76.1923 27.0779 78.3065 26.2748 80.0033 24.7372C81.7502 23.1542 83.0779 20.7531 83.7543 18.0321C83.907 17.3875 84.038 16.7534 84.1752 16.0829C84.7737 13.1585 85.4163 9.97783 88.2025 6.07603L88.2396 6.02525L88.2787 5.97544C89.6462 4.25244 91.36 2.83139 93.2992 1.80845C95.2424 0.783422 97.3831 0.178564 99.5726 0.0340357C101.625 -0.101407 103.681 0.168421 105.629 0.825051L106.018 0.96177L106.02 0.962747C108.077 1.71862 109.964 2.89979 111.545 4.43345L111.58 4.46861L111.615 4.50376C113.135 6.09933 114.304 8.00063 115.051 10.076C115.751 12.0205 116.069 14.0799 115.989 16.1454L115.967 16.5594C115.825 18.7594 115.227 20.91 114.215 22.869C113.202 24.8316 111.793 26.5542 110.086 27.9335L110.038 27.9725L109.988 28.0096C106.107 30.836 102.947 31.4918 100.043 32.1014C99.3852 32.2396 98.763 32.3703 98.1312 32.5233L98.1293 32.5243C92.617 33.8539 88.8348 37.728 89.5385 42.7772L89.6059 43.1981C89.9788 45.2437 90.8629 46.4269 91.932 47.2743C93.2021 48.2807 94.8221 48.8969 96.807 49.6229C98.4327 50.2175 100.505 50.9481 102.1 52.2098C103.901 53.6343 105.051 55.6717 105.051 58.5262Z" fill="url(#paint0_radial_64_27)"/>
<defs>
<radialGradient id="paint0_radial_64_27" cx="0" cy="0" r="1" gradientUnits="userSpaceOnUse" gradientTransform="translate(86.0004 29) rotate(111.337) scale(137.419 136.246)">
<stop stop-color="#C7E8A8"/>
<stop offset="0.384646" stop-color="#CCCCCC"/>
<stop offset="1" stop-color="#98B384"/>
</radialGradient>
</defs>
</svg>
